# xmcd
#
# Track frame offsets:
#       150
#       4047
#       24583
#       36588
#       54225
#       67529
#       93414
#       107618
#       127987
#       139993
#       157647
#       170951
#       196842
#
# Disc length: 2820 seconds
#
# Revision: 0
# Processed by: cddbd v1.5.2PL0 Copyright (c) Steve Scherf et al.
# Submitted via: CD-DA_X-Tractor v0.21
#
DISCID=9f0b020d
DTITLE=Free - Play Guitar With Free
DYEAR=1900
DGENRE=
TTITLE0=Tuning
TTITLE1=All Right Now, comp+solo
TTITLE2=Fire and Water, comp+solo
TTITLE3=Little Bit of Love, comp+solo
TTITLE4=Mr Big, comp+solo
TTITLE5=My Brother Jake, comp+solo
TTITLE6=Wishing Well, comp+solo
TTITLE7=All Right Now, comp
TTITLE8=Fire and Water, comp
TTITLE9=Little Bit of Love, comp
TTITLE10=Mr Big, comp
TTITLE11=My Broher Jake, comp
TTITLE12=Wishing Well, comp
EXTD=
EXTT0=
EXTT1=
EXTT2=
EXTT3=
EXTT4=
EXTT5=
EXTT6=
EXTT7=
EXTT8=
EXTT9=
EXTT10=
EXTT11=
EXTT12=
PLAYORDER=
